<mxfile host="Electron" modified="2023-10-23T13:43:45.691Z" agent="Mozilla/5.0 (X11; Linux x86_64) AppleWebKit/537.36 (KHTML, like Gecko) draw.io/22.0.2 Chrome/114.0.5735.289 Electron/25.8.4 Safari/537.36" etag="-MNeHXk4gHU4iTumIyBd" version="22.0.2" type="device">
  <diagram id="R2lEEEUBdFMjLlhIrx00" name="Page-1">
    <mxGraphModel dx="1674" dy="839" grid="1" gridSize="10" guides="1" tooltips="1" connect="1" arrows="1" fold="1" page="1" pageScale="1" pageWidth="850" pageHeight="1100" math="0" shadow="0" extFonts="Permanent Marker^https://fonts.googleapis.com/css?family=Permanent+Marker">
      <root>
        <mxCell id="0" />
        <mxCell id="1" parent="0" />
        <mxCell id="1wCu34omOZLLHnXQI6Vs-1" value="Assets" style="childLayout=tableLayout;recursiveResize=0;strokeColor=#98BF21;fillColor=#A7C942;shadow=1;" vertex="1" parent="1">
          <mxGeometry x="640" y="150" width="460" height="145" as="geometry" />
        </mxCell>
        <mxCell id="1wCu34omOZLLHnXQI6Vs-2" style="shape=tableRow;horizontal=0;startSize=0;swimlaneHead=0;swimlaneBody=0;top=0;left=0;bottom=0;right=0;dropTarget=0;collapsible=0;recursiveResize=0;expand=0;fontStyle=0;strokeColor=inherit;fillColor=#ffffff;" vertex="1" parent="1wCu34omOZLLHnXQI6Vs-1">
          <mxGeometry width="460" height="30" as="geometry" />
        </mxCell>
        <mxCell id="1wCu34omOZLLHnXQI6Vs-3" value="book_id" style="connectable=0;recursiveResize=0;strokeColor=inherit;fillColor=#4A0A39;align=center;fontStyle=1;fontColor=#FFFFFF;html=1;" vertex="1" parent="1wCu34omOZLLHnXQI6Vs-2">
          <mxGeometry width="93" height="30" as="geometry">
            <mxRectangle width="93" height="30" as="alternateBounds" />
          </mxGeometry>
        </mxCell>
        <mxCell id="1wCu34omOZLLHnXQI6Vs-4" value="type" style="connectable=0;recursiveResize=0;strokeColor=#17B012;fillColor=#4A0A39;align=center;fontStyle=1;fontColor=#FFFFFF;html=1;" vertex="1" parent="1wCu34omOZLLHnXQI6Vs-2">
          <mxGeometry x="93" width="97" height="30" as="geometry">
            <mxRectangle width="97" height="30" as="alternateBounds" />
          </mxGeometry>
        </mxCell>
        <mxCell id="1wCu34omOZLLHnXQI6Vs-5" value="language" style="connectable=0;recursiveResize=0;strokeColor=inherit;fillColor=#4A0A39;align=center;fontStyle=1;fontColor=#FFFFFF;html=1;" vertex="1" parent="1wCu34omOZLLHnXQI6Vs-2">
          <mxGeometry x="190" width="90" height="30" as="geometry">
            <mxRectangle width="90" height="30" as="alternateBounds" />
          </mxGeometry>
        </mxCell>
        <mxCell id="1wCu34omOZLLHnXQI6Vs-171" value="uni_paper" style="connectable=0;recursiveResize=0;strokeColor=inherit;fillColor=#4A0A39;align=center;fontStyle=1;fontColor=#FFFFFF;html=1;" vertex="1" parent="1wCu34omOZLLHnXQI6Vs-2">
          <mxGeometry x="280" width="90" height="30" as="geometry">
            <mxRectangle width="90" height="30" as="alternateBounds" />
          </mxGeometry>
        </mxCell>
        <mxCell id="1wCu34omOZLLHnXQI6Vs-175" value="price" style="connectable=0;recursiveResize=0;strokeColor=inherit;fillColor=#4A0A39;align=center;fontStyle=1;fontColor=#FFFFFF;html=1;" vertex="1" parent="1wCu34omOZLLHnXQI6Vs-2">
          <mxGeometry x="370" width="90" height="30" as="geometry">
            <mxRectangle width="90" height="30" as="alternateBounds" />
          </mxGeometry>
        </mxCell>
        <mxCell id="1wCu34omOZLLHnXQI6Vs-6" value="" style="shape=tableRow;horizontal=0;startSize=0;swimlaneHead=0;swimlaneBody=0;top=0;left=0;bottom=0;right=0;dropTarget=0;collapsible=0;recursiveResize=0;expand=0;fontStyle=0;strokeColor=inherit;fillColor=#ffffff;" vertex="1" parent="1wCu34omOZLLHnXQI6Vs-1">
          <mxGeometry y="30" width="460" height="38" as="geometry" />
        </mxCell>
        <mxCell id="1wCu34omOZLLHnXQI6Vs-7" value="1" style="connectable=0;recursiveResize=0;strokeColor=inherit;fillColor=#031C3D;align=center;whiteSpace=wrap;html=1;" vertex="1" parent="1wCu34omOZLLHnXQI6Vs-6">
          <mxGeometry width="93" height="38" as="geometry">
            <mxRectangle width="93" height="38" as="alternateBounds" />
          </mxGeometry>
        </mxCell>
        <mxCell id="1wCu34omOZLLHnXQI6Vs-8" value="Life" style="connectable=0;recursiveResize=0;strokeColor=inherit;fillColor=#031C3D;align=center;whiteSpace=wrap;html=1;" vertex="1" parent="1wCu34omOZLLHnXQI6Vs-6">
          <mxGeometry x="93" width="97" height="38" as="geometry">
            <mxRectangle width="97" height="38" as="alternateBounds" />
          </mxGeometry>
        </mxCell>
        <mxCell id="1wCu34omOZLLHnXQI6Vs-9" value="Greek" style="connectable=0;recursiveResize=0;strokeColor=inherit;fillColor=#031C3D;align=center;whiteSpace=wrap;html=1;" vertex="1" parent="1wCu34omOZLLHnXQI6Vs-6">
          <mxGeometry x="190" width="90" height="38" as="geometry">
            <mxRectangle width="90" height="38" as="alternateBounds" />
          </mxGeometry>
        </mxCell>
        <mxCell id="1wCu34omOZLLHnXQI6Vs-172" value="false" style="connectable=0;recursiveResize=0;strokeColor=inherit;fillColor=#031C3D;align=center;whiteSpace=wrap;html=1;" vertex="1" parent="1wCu34omOZLLHnXQI6Vs-6">
          <mxGeometry x="280" width="90" height="38" as="geometry">
            <mxRectangle width="90" height="38" as="alternateBounds" />
          </mxGeometry>
        </mxCell>
        <mxCell id="1wCu34omOZLLHnXQI6Vs-176" value="20$" style="connectable=0;recursiveResize=0;strokeColor=inherit;fillColor=#031C3D;align=center;whiteSpace=wrap;html=1;" vertex="1" parent="1wCu34omOZLLHnXQI6Vs-6">
          <mxGeometry x="370" width="90" height="38" as="geometry">
            <mxRectangle width="90" height="38" as="alternateBounds" />
          </mxGeometry>
        </mxCell>
        <mxCell id="1wCu34omOZLLHnXQI6Vs-10" value="" style="shape=tableRow;horizontal=0;startSize=0;swimlaneHead=0;swimlaneBody=0;top=0;left=0;bottom=0;right=0;dropTarget=0;collapsible=0;recursiveResize=0;expand=0;fontStyle=1;strokeColor=inherit;fillColor=#EAF2D3;" vertex="1" parent="1wCu34omOZLLHnXQI6Vs-1">
          <mxGeometry y="68" width="460" height="37" as="geometry" />
        </mxCell>
        <mxCell id="1wCu34omOZLLHnXQI6Vs-11" value="2" style="connectable=0;recursiveResize=0;strokeColor=inherit;fillColor=#031C3D;whiteSpace=wrap;html=1;" vertex="1" parent="1wCu34omOZLLHnXQI6Vs-10">
          <mxGeometry width="93" height="37" as="geometry">
            <mxRectangle width="93" height="37" as="alternateBounds" />
          </mxGeometry>
        </mxCell>
        <mxCell id="1wCu34omOZLLHnXQI6Vs-12" value="Exact" style="connectable=0;recursiveResize=0;strokeColor=inherit;fillColor=#031C3D;whiteSpace=wrap;html=1;" vertex="1" parent="1wCu34omOZLLHnXQI6Vs-10">
          <mxGeometry x="93" width="97" height="37" as="geometry">
            <mxRectangle width="97" height="37" as="alternateBounds" />
          </mxGeometry>
        </mxCell>
        <mxCell id="1wCu34omOZLLHnXQI6Vs-13" value="English" style="connectable=0;recursiveResize=0;strokeColor=inherit;fillColor=#031C3D;whiteSpace=wrap;html=1;" vertex="1" parent="1wCu34omOZLLHnXQI6Vs-10">
          <mxGeometry x="190" width="90" height="37" as="geometry">
            <mxRectangle width="90" height="37" as="alternateBounds" />
          </mxGeometry>
        </mxCell>
        <mxCell id="1wCu34omOZLLHnXQI6Vs-173" value="true" style="connectable=0;recursiveResize=0;strokeColor=inherit;fillColor=#031C3D;whiteSpace=wrap;html=1;" vertex="1" parent="1wCu34omOZLLHnXQI6Vs-10">
          <mxGeometry x="280" width="90" height="37" as="geometry">
            <mxRectangle width="90" height="37" as="alternateBounds" />
          </mxGeometry>
        </mxCell>
        <mxCell id="1wCu34omOZLLHnXQI6Vs-177" value="25$" style="connectable=0;recursiveResize=0;strokeColor=inherit;fillColor=#031C3D;whiteSpace=wrap;html=1;" vertex="1" parent="1wCu34omOZLLHnXQI6Vs-10">
          <mxGeometry x="370" width="90" height="37" as="geometry">
            <mxRectangle width="90" height="37" as="alternateBounds" />
          </mxGeometry>
        </mxCell>
        <mxCell id="1wCu34omOZLLHnXQI6Vs-14" value="" style="shape=tableRow;horizontal=0;startSize=0;swimlaneHead=0;swimlaneBody=0;top=0;left=0;bottom=0;right=0;dropTarget=0;collapsible=0;recursiveResize=0;expand=0;fontStyle=0;strokeColor=inherit;fillColor=#ffffff;" vertex="1" parent="1wCu34omOZLLHnXQI6Vs-1">
          <mxGeometry y="105" width="460" height="40" as="geometry" />
        </mxCell>
        <mxCell id="1wCu34omOZLLHnXQI6Vs-15" value="3" style="connectable=0;recursiveResize=0;strokeColor=inherit;fillColor=#031C3D;fontStyle=0;align=center;whiteSpace=wrap;html=1;" vertex="1" parent="1wCu34omOZLLHnXQI6Vs-14">
          <mxGeometry width="93" height="40" as="geometry">
            <mxRectangle width="93" height="40" as="alternateBounds" />
          </mxGeometry>
        </mxCell>
        <mxCell id="1wCu34omOZLLHnXQI6Vs-16" value="Technology" style="connectable=0;recursiveResize=0;strokeColor=inherit;fillColor=#031C3D;fontStyle=0;align=center;whiteSpace=wrap;html=1;" vertex="1" parent="1wCu34omOZLLHnXQI6Vs-14">
          <mxGeometry x="93" width="97" height="40" as="geometry">
            <mxRectangle width="97" height="40" as="alternateBounds" />
          </mxGeometry>
        </mxCell>
        <mxCell id="1wCu34omOZLLHnXQI6Vs-17" value="English" style="connectable=0;recursiveResize=0;strokeColor=#98BF21;fillColor=#031C3D;fontStyle=0;align=center;whiteSpace=wrap;html=1;" vertex="1" parent="1wCu34omOZLLHnXQI6Vs-14">
          <mxGeometry x="190" width="90" height="40" as="geometry">
            <mxRectangle width="90" height="40" as="alternateBounds" />
          </mxGeometry>
        </mxCell>
        <mxCell id="1wCu34omOZLLHnXQI6Vs-174" value="true" style="connectable=0;recursiveResize=0;strokeColor=#98BF21;fillColor=#031C3D;fontStyle=0;align=center;whiteSpace=wrap;html=1;" vertex="1" parent="1wCu34omOZLLHnXQI6Vs-14">
          <mxGeometry x="280" width="90" height="40" as="geometry">
            <mxRectangle width="90" height="40" as="alternateBounds" />
          </mxGeometry>
        </mxCell>
        <mxCell id="1wCu34omOZLLHnXQI6Vs-178" value="30$" style="connectable=0;recursiveResize=0;strokeColor=#98BF21;fillColor=#031C3D;fontStyle=0;align=center;whiteSpace=wrap;html=1;" vertex="1" parent="1wCu34omOZLLHnXQI6Vs-14">
          <mxGeometry x="370" width="90" height="40" as="geometry">
            <mxRectangle width="90" height="40" as="alternateBounds" />
          </mxGeometry>
        </mxCell>
        <mxCell id="1wCu34omOZLLHnXQI6Vs-179" value="Assets" style="childLayout=tableLayout;recursiveResize=0;strokeColor=#98BF21;fillColor=#A7C942;shadow=1;" vertex="1" parent="1">
          <mxGeometry x="13.5" y="150" width="460" height="145" as="geometry" />
        </mxCell>
        <mxCell id="1wCu34omOZLLHnXQI6Vs-180" style="shape=tableRow;horizontal=0;startSize=0;swimlaneHead=0;swimlaneBody=0;top=0;left=0;bottom=0;right=0;dropTarget=0;collapsible=0;recursiveResize=0;expand=0;fontStyle=0;strokeColor=inherit;fillColor=#ffffff;" vertex="1" parent="1wCu34omOZLLHnXQI6Vs-179">
          <mxGeometry width="460" height="30" as="geometry" />
        </mxCell>
        <mxCell id="1wCu34omOZLLHnXQI6Vs-181" value="customer_id" style="connectable=0;recursiveResize=0;strokeColor=inherit;fillColor=#4A0A39;align=center;fontStyle=1;fontColor=#FFFFFF;html=1;" vertex="1" parent="1wCu34omOZLLHnXQI6Vs-180">
          <mxGeometry width="93" height="30" as="geometry">
            <mxRectangle width="93" height="30" as="alternateBounds" />
          </mxGeometry>
        </mxCell>
        <mxCell id="1wCu34omOZLLHnXQI6Vs-182" value="AFM" style="connectable=0;recursiveResize=0;strokeColor=#17B012;fillColor=#4A0A39;align=center;fontStyle=1;fontColor=#FFFFFF;html=1;" vertex="1" parent="1wCu34omOZLLHnXQI6Vs-180">
          <mxGeometry x="93" width="97" height="30" as="geometry">
            <mxRectangle width="97" height="30" as="alternateBounds" />
          </mxGeometry>
        </mxCell>
        <mxCell id="1wCu34omOZLLHnXQI6Vs-183" value="first_name" style="connectable=0;recursiveResize=0;strokeColor=inherit;fillColor=#4A0A39;align=center;fontStyle=1;fontColor=#FFFFFF;html=1;" vertex="1" parent="1wCu34omOZLLHnXQI6Vs-180">
          <mxGeometry x="190" width="90" height="30" as="geometry">
            <mxRectangle width="90" height="30" as="alternateBounds" />
          </mxGeometry>
        </mxCell>
        <mxCell id="1wCu34omOZLLHnXQI6Vs-184" value="last_name" style="connectable=0;recursiveResize=0;strokeColor=inherit;fillColor=#4A0A39;align=center;fontStyle=1;fontColor=#FFFFFF;html=1;" vertex="1" parent="1wCu34omOZLLHnXQI6Vs-180">
          <mxGeometry x="280" width="90" height="30" as="geometry">
            <mxRectangle width="90" height="30" as="alternateBounds" />
          </mxGeometry>
        </mxCell>
        <mxCell id="1wCu34omOZLLHnXQI6Vs-185" value="address" style="connectable=0;recursiveResize=0;strokeColor=inherit;fillColor=#4A0A39;align=center;fontStyle=1;fontColor=#FFFFFF;html=1;" vertex="1" parent="1wCu34omOZLLHnXQI6Vs-180">
          <mxGeometry x="370" width="90" height="30" as="geometry">
            <mxRectangle width="90" height="30" as="alternateBounds" />
          </mxGeometry>
        </mxCell>
        <mxCell id="1wCu34omOZLLHnXQI6Vs-186" value="" style="shape=tableRow;horizontal=0;startSize=0;swimlaneHead=0;swimlaneBody=0;top=0;left=0;bottom=0;right=0;dropTarget=0;collapsible=0;recursiveResize=0;expand=0;fontStyle=0;strokeColor=inherit;fillColor=#ffffff;" vertex="1" parent="1wCu34omOZLLHnXQI6Vs-179">
          <mxGeometry y="30" width="460" height="38" as="geometry" />
        </mxCell>
        <mxCell id="1wCu34omOZLLHnXQI6Vs-187" value="1" style="connectable=0;recursiveResize=0;strokeColor=inherit;fillColor=#031C3D;align=center;whiteSpace=wrap;html=1;" vertex="1" parent="1wCu34omOZLLHnXQI6Vs-186">
          <mxGeometry width="93" height="38" as="geometry">
            <mxRectangle width="93" height="38" as="alternateBounds" />
          </mxGeometry>
        </mxCell>
        <mxCell id="1wCu34omOZLLHnXQI6Vs-188" value="11111" style="connectable=0;recursiveResize=0;strokeColor=inherit;fillColor=#031C3D;align=center;whiteSpace=wrap;html=1;" vertex="1" parent="1wCu34omOZLLHnXQI6Vs-186">
          <mxGeometry x="93" width="97" height="38" as="geometry">
            <mxRectangle width="97" height="38" as="alternateBounds" />
          </mxGeometry>
        </mxCell>
        <mxCell id="1wCu34omOZLLHnXQI6Vs-189" value="Giorgos" style="connectable=0;recursiveResize=0;strokeColor=inherit;fillColor=#031C3D;align=center;whiteSpace=wrap;html=1;" vertex="1" parent="1wCu34omOZLLHnXQI6Vs-186">
          <mxGeometry x="190" width="90" height="38" as="geometry">
            <mxRectangle width="90" height="38" as="alternateBounds" />
          </mxGeometry>
        </mxCell>
        <mxCell id="1wCu34omOZLLHnXQI6Vs-190" value="Stivaktakis" style="connectable=0;recursiveResize=0;strokeColor=inherit;fillColor=#031C3D;align=center;whiteSpace=wrap;html=1;" vertex="1" parent="1wCu34omOZLLHnXQI6Vs-186">
          <mxGeometry x="280" width="90" height="38" as="geometry">
            <mxRectangle width="90" height="38" as="alternateBounds" />
          </mxGeometry>
        </mxCell>
        <mxCell id="1wCu34omOZLLHnXQI6Vs-191" value="address1" style="connectable=0;recursiveResize=0;strokeColor=inherit;fillColor=#031C3D;align=center;whiteSpace=wrap;html=1;" vertex="1" parent="1wCu34omOZLLHnXQI6Vs-186">
          <mxGeometry x="370" width="90" height="38" as="geometry">
            <mxRectangle width="90" height="38" as="alternateBounds" />
          </mxGeometry>
        </mxCell>
        <mxCell id="1wCu34omOZLLHnXQI6Vs-192" value="" style="shape=tableRow;horizontal=0;startSize=0;swimlaneHead=0;swimlaneBody=0;top=0;left=0;bottom=0;right=0;dropTarget=0;collapsible=0;recursiveResize=0;expand=0;fontStyle=1;strokeColor=inherit;fillColor=#EAF2D3;" vertex="1" parent="1wCu34omOZLLHnXQI6Vs-179">
          <mxGeometry y="68" width="460" height="37" as="geometry" />
        </mxCell>
        <mxCell id="1wCu34omOZLLHnXQI6Vs-193" value="2" style="connectable=0;recursiveResize=0;strokeColor=inherit;fillColor=#031C3D;whiteSpace=wrap;html=1;" vertex="1" parent="1wCu34omOZLLHnXQI6Vs-192">
          <mxGeometry width="93" height="37" as="geometry">
            <mxRectangle width="93" height="37" as="alternateBounds" />
          </mxGeometry>
        </mxCell>
        <mxCell id="1wCu34omOZLLHnXQI6Vs-194" value="22222" style="connectable=0;recursiveResize=0;strokeColor=inherit;fillColor=#031C3D;whiteSpace=wrap;html=1;" vertex="1" parent="1wCu34omOZLLHnXQI6Vs-192">
          <mxGeometry x="93" width="97" height="37" as="geometry">
            <mxRectangle width="97" height="37" as="alternateBounds" />
          </mxGeometry>
        </mxCell>
        <mxCell id="1wCu34omOZLLHnXQI6Vs-195" value="Maria" style="connectable=0;recursiveResize=0;strokeColor=inherit;fillColor=#031C3D;whiteSpace=wrap;html=1;" vertex="1" parent="1wCu34omOZLLHnXQI6Vs-192">
          <mxGeometry x="190" width="90" height="37" as="geometry">
            <mxRectangle width="90" height="37" as="alternateBounds" />
          </mxGeometry>
        </mxCell>
        <mxCell id="1wCu34omOZLLHnXQI6Vs-196" value="Tade" style="connectable=0;recursiveResize=0;strokeColor=inherit;fillColor=#031C3D;whiteSpace=wrap;html=1;" vertex="1" parent="1wCu34omOZLLHnXQI6Vs-192">
          <mxGeometry x="280" width="90" height="37" as="geometry">
            <mxRectangle width="90" height="37" as="alternateBounds" />
          </mxGeometry>
        </mxCell>
        <mxCell id="1wCu34omOZLLHnXQI6Vs-197" value="address2" style="connectable=0;recursiveResize=0;strokeColor=inherit;fillColor=#031C3D;whiteSpace=wrap;html=1;" vertex="1" parent="1wCu34omOZLLHnXQI6Vs-192">
          <mxGeometry x="370" width="90" height="37" as="geometry">
            <mxRectangle width="90" height="37" as="alternateBounds" />
          </mxGeometry>
        </mxCell>
        <mxCell id="1wCu34omOZLLHnXQI6Vs-198" value="" style="shape=tableRow;horizontal=0;startSize=0;swimlaneHead=0;swimlaneBody=0;top=0;left=0;bottom=0;right=0;dropTarget=0;collapsible=0;recursiveResize=0;expand=0;fontStyle=0;strokeColor=inherit;fillColor=#ffffff;" vertex="1" parent="1wCu34omOZLLHnXQI6Vs-179">
          <mxGeometry y="105" width="460" height="40" as="geometry" />
        </mxCell>
        <mxCell id="1wCu34omOZLLHnXQI6Vs-199" value="3" style="connectable=0;recursiveResize=0;strokeColor=inherit;fillColor=#031C3D;fontStyle=0;align=center;whiteSpace=wrap;html=1;" vertex="1" parent="1wCu34omOZLLHnXQI6Vs-198">
          <mxGeometry width="93" height="40" as="geometry">
            <mxRectangle width="93" height="40" as="alternateBounds" />
          </mxGeometry>
        </mxCell>
        <mxCell id="1wCu34omOZLLHnXQI6Vs-200" value="33333" style="connectable=0;recursiveResize=0;strokeColor=inherit;fillColor=#031C3D;fontStyle=0;align=center;whiteSpace=wrap;html=1;" vertex="1" parent="1wCu34omOZLLHnXQI6Vs-198">
          <mxGeometry x="93" width="97" height="40" as="geometry">
            <mxRectangle width="97" height="40" as="alternateBounds" />
          </mxGeometry>
        </mxCell>
        <mxCell id="1wCu34omOZLLHnXQI6Vs-201" value="Giannis" style="connectable=0;recursiveResize=0;strokeColor=#98BF21;fillColor=#031C3D;fontStyle=0;align=center;whiteSpace=wrap;html=1;" vertex="1" parent="1wCu34omOZLLHnXQI6Vs-198">
          <mxGeometry x="190" width="90" height="40" as="geometry">
            <mxRectangle width="90" height="40" as="alternateBounds" />
          </mxGeometry>
        </mxCell>
        <mxCell id="1wCu34omOZLLHnXQI6Vs-202" value="Tade2" style="connectable=0;recursiveResize=0;strokeColor=#98BF21;fillColor=#031C3D;fontStyle=0;align=center;whiteSpace=wrap;html=1;" vertex="1" parent="1wCu34omOZLLHnXQI6Vs-198">
          <mxGeometry x="280" width="90" height="40" as="geometry">
            <mxRectangle width="90" height="40" as="alternateBounds" />
          </mxGeometry>
        </mxCell>
        <mxCell id="1wCu34omOZLLHnXQI6Vs-203" value="address3" style="connectable=0;recursiveResize=0;strokeColor=#98BF21;fillColor=#031C3D;fontStyle=0;align=center;whiteSpace=wrap;html=1;" vertex="1" parent="1wCu34omOZLLHnXQI6Vs-198">
          <mxGeometry x="370" width="90" height="40" as="geometry">
            <mxRectangle width="90" height="40" as="alternateBounds" />
          </mxGeometry>
        </mxCell>
        <mxCell id="1wCu34omOZLLHnXQI6Vs-51" value="&lt;span style=&quot;font-size: 18px;&quot;&gt;Customers Table&lt;/span&gt;" style="text;html=1;strokeColor=none;fillColor=none;align=center;verticalAlign=middle;whiteSpace=wrap;rounded=0;" vertex="1" parent="1">
          <mxGeometry x="143" y="110" width="187" height="30" as="geometry" />
        </mxCell>
        <mxCell id="1wCu34omOZLLHnXQI6Vs-204" value="&lt;span style=&quot;font-size: 18px;&quot;&gt;Books Table&lt;/span&gt;" style="text;html=1;strokeColor=none;fillColor=none;align=center;verticalAlign=middle;whiteSpace=wrap;rounded=0;" vertex="1" parent="1">
          <mxGeometry x="776.5" y="110" width="187" height="30" as="geometry" />
        </mxCell>
        <mxCell id="1wCu34omOZLLHnXQI6Vs-248" value="Assets" style="childLayout=tableLayout;recursiveResize=0;strokeColor=#98BF21;fillColor=#A7C942;shadow=1;" vertex="1" parent="1">
          <mxGeometry x="270" y="470" width="550" height="145" as="geometry" />
        </mxCell>
        <mxCell id="1wCu34omOZLLHnXQI6Vs-249" style="shape=tableRow;horizontal=0;startSize=0;swimlaneHead=0;swimlaneBody=0;top=0;left=0;bottom=0;right=0;dropTarget=0;collapsible=0;recursiveResize=0;expand=0;fontStyle=0;strokeColor=inherit;fillColor=#ffffff;" vertex="1" parent="1wCu34omOZLLHnXQI6Vs-248">
          <mxGeometry width="550" height="30" as="geometry" />
        </mxCell>
        <mxCell id="1wCu34omOZLLHnXQI6Vs-250" value="order_id" style="connectable=0;recursiveResize=0;strokeColor=inherit;fillColor=#4A0A39;align=center;fontStyle=1;fontColor=#FFFFFF;html=1;" vertex="1" parent="1wCu34omOZLLHnXQI6Vs-249">
          <mxGeometry width="93" height="30" as="geometry">
            <mxRectangle width="93" height="30" as="alternateBounds" />
          </mxGeometry>
        </mxCell>
        <mxCell id="1wCu34omOZLLHnXQI6Vs-251" value="user_id" style="connectable=0;recursiveResize=0;strokeColor=#17B012;fillColor=#4A0A39;align=center;fontStyle=1;fontColor=#FFFFFF;html=1;" vertex="1" parent="1wCu34omOZLLHnXQI6Vs-249">
          <mxGeometry x="93" width="97" height="30" as="geometry">
            <mxRectangle width="97" height="30" as="alternateBounds" />
          </mxGeometry>
        </mxCell>
        <mxCell id="1wCu34omOZLLHnXQI6Vs-252" value="book_id" style="connectable=0;recursiveResize=0;strokeColor=inherit;fillColor=#4A0A39;align=center;fontStyle=1;fontColor=#FFFFFF;html=1;" vertex="1" parent="1wCu34omOZLLHnXQI6Vs-249">
          <mxGeometry x="190" width="90" height="30" as="geometry">
            <mxRectangle width="90" height="30" as="alternateBounds" />
          </mxGeometry>
        </mxCell>
        <mxCell id="1wCu34omOZLLHnXQI6Vs-253" value="book_id" style="connectable=0;recursiveResize=0;strokeColor=inherit;fillColor=#4A0A39;align=center;fontStyle=1;fontColor=#FFFFFF;html=1;" vertex="1" parent="1wCu34omOZLLHnXQI6Vs-249">
          <mxGeometry x="280" width="90" height="30" as="geometry">
            <mxRectangle width="90" height="30" as="alternateBounds" />
          </mxGeometry>
        </mxCell>
        <mxCell id="1wCu34omOZLLHnXQI6Vs-254" value="book_id" style="connectable=0;recursiveResize=0;strokeColor=inherit;fillColor=#4A0A39;align=center;fontStyle=1;fontColor=#FFFFFF;html=1;" vertex="1" parent="1wCu34omOZLLHnXQI6Vs-249">
          <mxGeometry x="370" width="90" height="30" as="geometry">
            <mxRectangle width="90" height="30" as="alternateBounds" />
          </mxGeometry>
        </mxCell>
        <mxCell id="1wCu34omOZLLHnXQI6Vs-273" value="payment_info" style="connectable=0;recursiveResize=0;strokeColor=inherit;fillColor=#4A0A39;align=center;fontStyle=1;fontColor=#FFFFFF;html=1;" vertex="1" parent="1wCu34omOZLLHnXQI6Vs-249">
          <mxGeometry x="460" width="90" height="30" as="geometry">
            <mxRectangle width="90" height="30" as="alternateBounds" />
          </mxGeometry>
        </mxCell>
        <mxCell id="1wCu34omOZLLHnXQI6Vs-255" value="" style="shape=tableRow;horizontal=0;startSize=0;swimlaneHead=0;swimlaneBody=0;top=0;left=0;bottom=0;right=0;dropTarget=0;collapsible=0;recursiveResize=0;expand=0;fontStyle=0;strokeColor=inherit;fillColor=#ffffff;" vertex="1" parent="1wCu34omOZLLHnXQI6Vs-248">
          <mxGeometry y="30" width="550" height="38" as="geometry" />
        </mxCell>
        <mxCell id="1wCu34omOZLLHnXQI6Vs-256" value="1" style="connectable=0;recursiveResize=0;strokeColor=inherit;fillColor=#031C3D;align=center;whiteSpace=wrap;html=1;" vertex="1" parent="1wCu34omOZLLHnXQI6Vs-255">
          <mxGeometry width="93" height="38" as="geometry">
            <mxRectangle width="93" height="38" as="alternateBounds" />
          </mxGeometry>
        </mxCell>
        <mxCell id="1wCu34omOZLLHnXQI6Vs-257" value="1" style="connectable=0;recursiveResize=0;strokeColor=inherit;fillColor=#031C3D;align=center;whiteSpace=wrap;html=1;" vertex="1" parent="1wCu34omOZLLHnXQI6Vs-255">
          <mxGeometry x="93" width="97" height="38" as="geometry">
            <mxRectangle width="97" height="38" as="alternateBounds" />
          </mxGeometry>
        </mxCell>
        <mxCell id="1wCu34omOZLLHnXQI6Vs-258" value="1" style="connectable=0;recursiveResize=0;strokeColor=inherit;fillColor=#031C3D;align=center;whiteSpace=wrap;html=1;" vertex="1" parent="1wCu34omOZLLHnXQI6Vs-255">
          <mxGeometry x="190" width="90" height="38" as="geometry">
            <mxRectangle width="90" height="38" as="alternateBounds" />
          </mxGeometry>
        </mxCell>
        <mxCell id="1wCu34omOZLLHnXQI6Vs-259" value="2" style="connectable=0;recursiveResize=0;strokeColor=inherit;fillColor=#031C3D;align=center;whiteSpace=wrap;html=1;" vertex="1" parent="1wCu34omOZLLHnXQI6Vs-255">
          <mxGeometry x="280" width="90" height="38" as="geometry">
            <mxRectangle width="90" height="38" as="alternateBounds" />
          </mxGeometry>
        </mxCell>
        <mxCell id="1wCu34omOZLLHnXQI6Vs-260" value="3" style="connectable=0;recursiveResize=0;strokeColor=inherit;fillColor=#031C3D;align=center;whiteSpace=wrap;html=1;" vertex="1" parent="1wCu34omOZLLHnXQI6Vs-255">
          <mxGeometry x="370" width="90" height="38" as="geometry">
            <mxRectangle width="90" height="38" as="alternateBounds" />
          </mxGeometry>
        </mxCell>
        <mxCell id="1wCu34omOZLLHnXQI6Vs-274" value="info1" style="connectable=0;recursiveResize=0;strokeColor=inherit;fillColor=#031C3D;align=center;whiteSpace=wrap;html=1;" vertex="1" parent="1wCu34omOZLLHnXQI6Vs-255">
          <mxGeometry x="460" width="90" height="38" as="geometry">
            <mxRectangle width="90" height="38" as="alternateBounds" />
          </mxGeometry>
        </mxCell>
        <mxCell id="1wCu34omOZLLHnXQI6Vs-261" value="" style="shape=tableRow;horizontal=0;startSize=0;swimlaneHead=0;swimlaneBody=0;top=0;left=0;bottom=0;right=0;dropTarget=0;collapsible=0;recursiveResize=0;expand=0;fontStyle=1;strokeColor=inherit;fillColor=#EAF2D3;" vertex="1" parent="1wCu34omOZLLHnXQI6Vs-248">
          <mxGeometry y="68" width="550" height="37" as="geometry" />
        </mxCell>
        <mxCell id="1wCu34omOZLLHnXQI6Vs-262" value="2" style="connectable=0;recursiveResize=0;strokeColor=inherit;fillColor=#031C3D;whiteSpace=wrap;html=1;" vertex="1" parent="1wCu34omOZLLHnXQI6Vs-261">
          <mxGeometry width="93" height="37" as="geometry">
            <mxRectangle width="93" height="37" as="alternateBounds" />
          </mxGeometry>
        </mxCell>
        <mxCell id="1wCu34omOZLLHnXQI6Vs-263" value="2" style="connectable=0;recursiveResize=0;strokeColor=inherit;fillColor=#031C3D;whiteSpace=wrap;html=1;" vertex="1" parent="1wCu34omOZLLHnXQI6Vs-261">
          <mxGeometry x="93" width="97" height="37" as="geometry">
            <mxRectangle width="97" height="37" as="alternateBounds" />
          </mxGeometry>
        </mxCell>
        <mxCell id="1wCu34omOZLLHnXQI6Vs-264" value="1" style="connectable=0;recursiveResize=0;strokeColor=inherit;fillColor=#031C3D;whiteSpace=wrap;html=1;" vertex="1" parent="1wCu34omOZLLHnXQI6Vs-261">
          <mxGeometry x="190" width="90" height="37" as="geometry">
            <mxRectangle width="90" height="37" as="alternateBounds" />
          </mxGeometry>
        </mxCell>
        <mxCell id="1wCu34omOZLLHnXQI6Vs-265" value="" style="connectable=0;recursiveResize=0;strokeColor=inherit;fillColor=#031C3D;whiteSpace=wrap;html=1;" vertex="1" parent="1wCu34omOZLLHnXQI6Vs-261">
          <mxGeometry x="280" width="90" height="37" as="geometry">
            <mxRectangle width="90" height="37" as="alternateBounds" />
          </mxGeometry>
        </mxCell>
        <mxCell id="1wCu34omOZLLHnXQI6Vs-266" value="" style="connectable=0;recursiveResize=0;strokeColor=inherit;fillColor=#031C3D;whiteSpace=wrap;html=1;" vertex="1" parent="1wCu34omOZLLHnXQI6Vs-261">
          <mxGeometry x="370" width="90" height="37" as="geometry">
            <mxRectangle width="90" height="37" as="alternateBounds" />
          </mxGeometry>
        </mxCell>
        <mxCell id="1wCu34omOZLLHnXQI6Vs-275" value="info2" style="connectable=0;recursiveResize=0;strokeColor=inherit;fillColor=#031C3D;whiteSpace=wrap;html=1;" vertex="1" parent="1wCu34omOZLLHnXQI6Vs-261">
          <mxGeometry x="460" width="90" height="37" as="geometry">
            <mxRectangle width="90" height="37" as="alternateBounds" />
          </mxGeometry>
        </mxCell>
        <mxCell id="1wCu34omOZLLHnXQI6Vs-267" value="" style="shape=tableRow;horizontal=0;startSize=0;swimlaneHead=0;swimlaneBody=0;top=0;left=0;bottom=0;right=0;dropTarget=0;collapsible=0;recursiveResize=0;expand=0;fontStyle=0;strokeColor=inherit;fillColor=#ffffff;" vertex="1" parent="1wCu34omOZLLHnXQI6Vs-248">
          <mxGeometry y="105" width="550" height="40" as="geometry" />
        </mxCell>
        <mxCell id="1wCu34omOZLLHnXQI6Vs-268" value="3" style="connectable=0;recursiveResize=0;strokeColor=inherit;fillColor=#031C3D;fontStyle=0;align=center;whiteSpace=wrap;html=1;" vertex="1" parent="1wCu34omOZLLHnXQI6Vs-267">
          <mxGeometry width="93" height="40" as="geometry">
            <mxRectangle width="93" height="40" as="alternateBounds" />
          </mxGeometry>
        </mxCell>
        <mxCell id="1wCu34omOZLLHnXQI6Vs-269" value="3" style="connectable=0;recursiveResize=0;strokeColor=inherit;fillColor=#031C3D;fontStyle=0;align=center;whiteSpace=wrap;html=1;" vertex="1" parent="1wCu34omOZLLHnXQI6Vs-267">
          <mxGeometry x="93" width="97" height="40" as="geometry">
            <mxRectangle width="97" height="40" as="alternateBounds" />
          </mxGeometry>
        </mxCell>
        <mxCell id="1wCu34omOZLLHnXQI6Vs-270" value="3" style="connectable=0;recursiveResize=0;strokeColor=#98BF21;fillColor=#031C3D;fontStyle=0;align=center;whiteSpace=wrap;html=1;" vertex="1" parent="1wCu34omOZLLHnXQI6Vs-267">
          <mxGeometry x="190" width="90" height="40" as="geometry">
            <mxRectangle width="90" height="40" as="alternateBounds" />
          </mxGeometry>
        </mxCell>
        <mxCell id="1wCu34omOZLLHnXQI6Vs-271" value="1" style="connectable=0;recursiveResize=0;strokeColor=#98BF21;fillColor=#031C3D;fontStyle=0;align=center;whiteSpace=wrap;html=1;" vertex="1" parent="1wCu34omOZLLHnXQI6Vs-267">
          <mxGeometry x="280" width="90" height="40" as="geometry">
            <mxRectangle width="90" height="40" as="alternateBounds" />
          </mxGeometry>
        </mxCell>
        <mxCell id="1wCu34omOZLLHnXQI6Vs-272" value="" style="connectable=0;recursiveResize=0;strokeColor=#98BF21;fillColor=#031C3D;fontStyle=0;align=center;whiteSpace=wrap;html=1;" vertex="1" parent="1wCu34omOZLLHnXQI6Vs-267">
          <mxGeometry x="370" width="90" height="40" as="geometry">
            <mxRectangle width="90" height="40" as="alternateBounds" />
          </mxGeometry>
        </mxCell>
        <mxCell id="1wCu34omOZLLHnXQI6Vs-276" value="info3" style="connectable=0;recursiveResize=0;strokeColor=#98BF21;fillColor=#031C3D;fontStyle=0;align=center;whiteSpace=wrap;html=1;" vertex="1" parent="1wCu34omOZLLHnXQI6Vs-267">
          <mxGeometry x="460" width="90" height="40" as="geometry">
            <mxRectangle width="90" height="40" as="alternateBounds" />
          </mxGeometry>
        </mxCell>
        <mxCell id="1wCu34omOZLLHnXQI6Vs-302" value="&lt;span style=&quot;font-size: 18px;&quot;&gt;Shipments Table&lt;/span&gt;" style="text;html=1;strokeColor=none;fillColor=none;align=center;verticalAlign=middle;whiteSpace=wrap;rounded=0;" vertex="1" parent="1">
          <mxGeometry x="471.5" y="730" width="187" height="30" as="geometry" />
        </mxCell>
        <mxCell id="1wCu34omOZLLHnXQI6Vs-303" value="&lt;span style=&quot;font-size: 18px;&quot;&gt;Orders Table&lt;/span&gt;" style="text;html=1;strokeColor=none;fillColor=none;align=center;verticalAlign=middle;whiteSpace=wrap;rounded=0;" vertex="1" parent="1">
          <mxGeometry x="461.5" y="430" width="187" height="30" as="geometry" />
        </mxCell>
        <mxCell id="1wCu34omOZLLHnXQI6Vs-304" value="" style="endArrow=classic;html=1;rounded=0;exitX=0.75;exitY=1;exitDx=0;exitDy=0;entryX=0.162;entryY=0.145;entryDx=0;entryDy=0;entryPerimeter=0;" edge="1" parent="1" source="1wCu34omOZLLHnXQI6Vs-198" target="1wCu34omOZLLHnXQI6Vs-249">
          <mxGeometry width="50" height="50" relative="1" as="geometry">
            <mxPoint x="400" y="440" as="sourcePoint" />
            <mxPoint x="359" y="470" as="targetPoint" />
          </mxGeometry>
        </mxCell>
        <mxCell id="1wCu34omOZLLHnXQI6Vs-311" value="" style="endArrow=classic;html=1;rounded=0;exitX=0.75;exitY=1;exitDx=0;exitDy=0;entryX=0.124;entryY=-0.012;entryDx=0;entryDy=0;entryPerimeter=0;" edge="1" parent="1" target="1wCu34omOZLLHnXQI6Vs-278">
          <mxGeometry width="50" height="50" relative="1" as="geometry">
            <mxPoint x="460.5" y="615" as="sourcePoint" />
            <mxPoint x="460.5" y="794" as="targetPoint" />
          </mxGeometry>
        </mxCell>
        <mxCell id="1wCu34omOZLLHnXQI6Vs-307" value="" style="endArrow=classic;html=1;rounded=0;exitX=0.75;exitY=1;exitDx=0;exitDy=0;entryX=0.162;entryY=0.145;entryDx=0;entryDy=0;entryPerimeter=0;" edge="1" parent="1">
          <mxGeometry width="50" height="50" relative="1" as="geometry">
            <mxPoint x="690" y="295" as="sourcePoint" />
            <mxPoint x="690" y="474" as="targetPoint" />
            <Array as="points">
              <mxPoint x="691" y="390" />
            </Array>
          </mxGeometry>
        </mxCell>
        <mxCell id="1wCu34omOZLLHnXQI6Vs-277" value="Assets" style="childLayout=tableLayout;recursiveResize=0;strokeColor=#98BF21;fillColor=#A7C942;shadow=1;" vertex="1" parent="1">
          <mxGeometry x="425" y="770" width="280" height="145" as="geometry" />
        </mxCell>
        <mxCell id="1wCu34omOZLLHnXQI6Vs-278" style="shape=tableRow;horizontal=0;startSize=0;swimlaneHead=0;swimlaneBody=0;top=0;left=0;bottom=0;right=0;dropTarget=0;collapsible=0;recursiveResize=0;expand=0;fontStyle=0;strokeColor=inherit;fillColor=#ffffff;" vertex="1" parent="1wCu34omOZLLHnXQI6Vs-277">
          <mxGeometry width="280" height="30" as="geometry" />
        </mxCell>
        <mxCell id="1wCu34omOZLLHnXQI6Vs-279" value="shipment_id" style="connectable=0;recursiveResize=0;strokeColor=inherit;fillColor=#4A0A39;align=center;fontStyle=1;fontColor=#FFFFFF;html=1;" vertex="1" parent="1wCu34omOZLLHnXQI6Vs-278">
          <mxGeometry width="93" height="30" as="geometry">
            <mxRectangle width="93" height="30" as="alternateBounds" />
          </mxGeometry>
        </mxCell>
        <mxCell id="1wCu34omOZLLHnXQI6Vs-280" value="oder_id" style="connectable=0;recursiveResize=0;strokeColor=#17B012;fillColor=#4A0A39;align=center;fontStyle=1;fontColor=#FFFFFF;html=1;" vertex="1" parent="1wCu34omOZLLHnXQI6Vs-278">
          <mxGeometry x="93" width="97" height="30" as="geometry">
            <mxRectangle width="97" height="30" as="alternateBounds" />
          </mxGeometry>
        </mxCell>
        <mxCell id="1wCu34omOZLLHnXQI6Vs-281" value="date" style="connectable=0;recursiveResize=0;strokeColor=inherit;fillColor=#4A0A39;align=center;fontStyle=1;fontColor=#FFFFFF;html=1;" vertex="1" parent="1wCu34omOZLLHnXQI6Vs-278">
          <mxGeometry x="190" width="90" height="30" as="geometry">
            <mxRectangle width="90" height="30" as="alternateBounds" />
          </mxGeometry>
        </mxCell>
        <mxCell id="1wCu34omOZLLHnXQI6Vs-284" value="" style="shape=tableRow;horizontal=0;startSize=0;swimlaneHead=0;swimlaneBody=0;top=0;left=0;bottom=0;right=0;dropTarget=0;collapsible=0;recursiveResize=0;expand=0;fontStyle=0;strokeColor=inherit;fillColor=#ffffff;" vertex="1" parent="1wCu34omOZLLHnXQI6Vs-277">
          <mxGeometry y="30" width="280" height="38" as="geometry" />
        </mxCell>
        <mxCell id="1wCu34omOZLLHnXQI6Vs-285" value="1" style="connectable=0;recursiveResize=0;strokeColor=inherit;fillColor=#031C3D;align=center;whiteSpace=wrap;html=1;" vertex="1" parent="1wCu34omOZLLHnXQI6Vs-284">
          <mxGeometry width="93" height="38" as="geometry">
            <mxRectangle width="93" height="38" as="alternateBounds" />
          </mxGeometry>
        </mxCell>
        <mxCell id="1wCu34omOZLLHnXQI6Vs-286" value="1" style="connectable=0;recursiveResize=0;strokeColor=inherit;fillColor=#031C3D;align=center;whiteSpace=wrap;html=1;" vertex="1" parent="1wCu34omOZLLHnXQI6Vs-284">
          <mxGeometry x="93" width="97" height="38" as="geometry">
            <mxRectangle width="97" height="38" as="alternateBounds" />
          </mxGeometry>
        </mxCell>
        <mxCell id="1wCu34omOZLLHnXQI6Vs-287" value="mera1" style="connectable=0;recursiveResize=0;strokeColor=inherit;fillColor=#031C3D;align=center;whiteSpace=wrap;html=1;" vertex="1" parent="1wCu34omOZLLHnXQI6Vs-284">
          <mxGeometry x="190" width="90" height="38" as="geometry">
            <mxRectangle width="90" height="38" as="alternateBounds" />
          </mxGeometry>
        </mxCell>
        <mxCell id="1wCu34omOZLLHnXQI6Vs-290" value="" style="shape=tableRow;horizontal=0;startSize=0;swimlaneHead=0;swimlaneBody=0;top=0;left=0;bottom=0;right=0;dropTarget=0;collapsible=0;recursiveResize=0;expand=0;fontStyle=1;strokeColor=inherit;fillColor=#EAF2D3;" vertex="1" parent="1wCu34omOZLLHnXQI6Vs-277">
          <mxGeometry y="68" width="280" height="37" as="geometry" />
        </mxCell>
        <mxCell id="1wCu34omOZLLHnXQI6Vs-291" value="2" style="connectable=0;recursiveResize=0;strokeColor=inherit;fillColor=#031C3D;whiteSpace=wrap;html=1;" vertex="1" parent="1wCu34omOZLLHnXQI6Vs-290">
          <mxGeometry width="93" height="37" as="geometry">
            <mxRectangle width="93" height="37" as="alternateBounds" />
          </mxGeometry>
        </mxCell>
        <mxCell id="1wCu34omOZLLHnXQI6Vs-292" value="2" style="connectable=0;recursiveResize=0;strokeColor=inherit;fillColor=#031C3D;whiteSpace=wrap;html=1;" vertex="1" parent="1wCu34omOZLLHnXQI6Vs-290">
          <mxGeometry x="93" width="97" height="37" as="geometry">
            <mxRectangle width="97" height="37" as="alternateBounds" />
          </mxGeometry>
        </mxCell>
        <mxCell id="1wCu34omOZLLHnXQI6Vs-293" value="mera2" style="connectable=0;recursiveResize=0;strokeColor=inherit;fillColor=#031C3D;whiteSpace=wrap;html=1;" vertex="1" parent="1wCu34omOZLLHnXQI6Vs-290">
          <mxGeometry x="190" width="90" height="37" as="geometry">
            <mxRectangle width="90" height="37" as="alternateBounds" />
          </mxGeometry>
        </mxCell>
        <mxCell id="1wCu34omOZLLHnXQI6Vs-296" value="" style="shape=tableRow;horizontal=0;startSize=0;swimlaneHead=0;swimlaneBody=0;top=0;left=0;bottom=0;right=0;dropTarget=0;collapsible=0;recursiveResize=0;expand=0;fontStyle=0;strokeColor=inherit;fillColor=#ffffff;" vertex="1" parent="1wCu34omOZLLHnXQI6Vs-277">
          <mxGeometry y="105" width="280" height="40" as="geometry" />
        </mxCell>
        <mxCell id="1wCu34omOZLLHnXQI6Vs-297" value="3" style="connectable=0;recursiveResize=0;strokeColor=inherit;fillColor=#031C3D;fontStyle=0;align=center;whiteSpace=wrap;html=1;" vertex="1" parent="1wCu34omOZLLHnXQI6Vs-296">
          <mxGeometry width="93" height="40" as="geometry">
            <mxRectangle width="93" height="40" as="alternateBounds" />
          </mxGeometry>
        </mxCell>
        <mxCell id="1wCu34omOZLLHnXQI6Vs-298" value="3" style="connectable=0;recursiveResize=0;strokeColor=inherit;fillColor=#031C3D;fontStyle=0;align=center;whiteSpace=wrap;html=1;" vertex="1" parent="1wCu34omOZLLHnXQI6Vs-296">
          <mxGeometry x="93" width="97" height="40" as="geometry">
            <mxRectangle width="97" height="40" as="alternateBounds" />
          </mxGeometry>
        </mxCell>
        <mxCell id="1wCu34omOZLLHnXQI6Vs-299" value="mera3" style="connectable=0;recursiveResize=0;strokeColor=#98BF21;fillColor=#031C3D;fontStyle=0;align=center;whiteSpace=wrap;html=1;" vertex="1" parent="1wCu34omOZLLHnXQI6Vs-296">
          <mxGeometry x="190" width="90" height="40" as="geometry">
            <mxRectangle width="90" height="40" as="alternateBounds" />
          </mxGeometry>
        </mxCell>
      </root>
    </mxGraphModel>
  </diagram>
</mxfile>
